<svg id="Layer_1" data-name="Layer 1" xmlns="http://www.w3.org/2000/svg" viewBox="0 0 256 222"><defs><style>.cls-1{fill:#bf117d;}.cls-2{fill:#ce117d;}.cls-3{fill:#d31ea0;}.cls-4{fill:#ad1f77;}.cls-5{fill:#e81ca4;}.cls-6{fill:#ea1197;}.cls-7{fill:#e224b6;}.cls-8{fill:#e2107f;}</style></defs><title>Artboard 2</title><path class="cls-1" d="M162.25,201.45c-23.66,0-42.91-18-42.91-40.2s19.25-40.2,42.91-40.2,42.92,18,42.92,40.2S185.92,201.45,162.25,201.45Z"/><path class="cls-2" d="M162.25,121.55c23.39,0,42.42,17.81,42.42,39.7s-19,39.7-42.42,39.7-42.41-17.81-42.41-39.7,19-39.7,42.41-39.7m0-1c-24,0-43.41,18.22-43.41,40.7S138.28,202,162.25,202s43.42-18.22,43.42-40.7-19.44-40.7-43.42-40.7Z"/><path class="cls-3" d="M118.84,210.5c-23.67,0-42.92-18-42.92-40.2s19.25-40.21,42.92-40.21,42.91,18,42.91,40.21S142.5,210.5,118.84,210.5Z"/><path class="cls-3" d="M118.84,130.59c23.39,0,42.41,17.81,42.41,39.71s-19,39.7-42.41,39.7-42.42-17.81-42.42-39.7,19-39.71,42.42-39.71m0-1c-24,0-43.42,18.22-43.42,40.71S94.86,211,118.84,211s43.41-18.22,43.41-40.7-19.43-40.71-43.41-40.71Z"/><ellipse class="cls-4" cx="109.79" cy="56.32" rx="42.92" ry="40.2"/><path class="cls-4" d="M109.79,16.62c23.39,0,42.42,17.81,42.42,39.7S133.18,96,109.79,96,67.37,78.22,67.37,56.32s19-39.7,42.42-39.7m0-1c-24,0-43.42,18.22-43.42,40.7S85.81,97,109.79,97s43.42-18.23,43.42-40.71-19.44-40.7-43.42-40.7Z"/><ellipse class="cls-4" cx="156.83" cy="58.13" rx="42.92" ry="40.2"/><path class="cls-4" d="M156.83,18.43c23.39,0,42.42,17.81,42.42,39.7s-19,39.71-42.42,39.71S114.41,80,114.41,58.13s19-39.7,42.42-39.7m0-1c-24,0-43.42,18.22-43.42,40.7s19.44,40.71,43.42,40.71,43.42-18.23,43.42-40.71-19.44-40.7-43.42-40.7Z"/><ellipse class="cls-5" cx="75.42" cy="125.07" rx="42.92" ry="40.2"/><path class="cls-5" d="M75.42,85.36c23.39,0,42.42,17.82,42.42,39.71s-19,39.7-42.42,39.7S33,147,33,125.07,52,85.36,75.42,85.36m0-1c-24,0-43.42,18.23-43.42,40.71s19.44,40.7,43.42,40.7,43.42-18.22,43.42-40.7S99.4,84.36,75.42,84.36Z"/><ellipse class="cls-6" cx="75.42" cy="61.75" rx="42.92" ry="40.2"/><path class="cls-6" d="M75.42,22.05c23.39,0,42.42,17.81,42.42,39.7s-19,39.7-42.42,39.7S33,83.64,33,61.75s19-39.7,42.42-39.7m0-1c-24,0-43.42,18.22-43.42,40.7s19.44,40.7,43.42,40.7,43.42-18.22,43.42-40.7S99.4,21.05,75.42,21.05Z"/><ellipse class="cls-7" cx="135.12" cy="150.4" rx="42.92" ry="40.2"/><path class="cls-7" d="M135.12,110.69c23.39,0,42.42,17.81,42.42,39.71s-19,39.7-42.42,39.7S92.7,172.29,92.7,150.4s19-39.71,42.42-39.71m0-1c-24,0-43.42,18.22-43.42,40.71s19.44,40.7,43.42,40.7,43.42-18.22,43.42-40.7-19.44-40.71-43.42-40.71Z"/><ellipse class="cls-2" cx="191.2" cy="121.45" rx="42.92" ry="40.2"/><path class="cls-2" d="M191.2,81.75c23.39,0,42.42,17.81,42.42,39.7s-19,39.7-42.42,39.7-42.42-17.81-42.42-39.7,19-39.7,42.42-39.7m0-1c-24,0-43.42,18.22-43.42,40.7s19.44,40.7,43.42,40.7,43.42-18.22,43.42-40.7-19.44-40.7-43.42-40.7Z"/><ellipse class="cls-8" cx="191.2" cy="52.7" rx="42.92" ry="40.2"/><path class="cls-8" d="M191.2,13c23.39,0,42.42,17.81,42.42,39.7s-19,39.71-42.42,39.71S148.78,74.6,148.78,52.7,167.81,13,191.2,13m0-1c-24,0-43.42,18.22-43.42,40.7s19.44,40.71,43.42,40.71,43.42-18.22,43.42-40.71S215.18,12,191.2,12Z"/><ellipse class="cls-6" cx="135.12" cy="76.22" rx="42.92" ry="40.2"/><path class="cls-6" d="M135.12,36.52c23.39,0,42.42,17.81,42.42,39.7s-19,39.71-42.42,39.71S92.7,98.12,92.7,76.22s19-39.7,42.42-39.7m0-1c-24,0-43.42,18.22-43.42,40.7s19.44,40.71,43.42,40.71,43.42-18.23,43.42-40.71-19.44-40.7-43.42-40.7Z"/></svg>
